<?xml version="1.0" encoding="UTF-8"?>
<svg width="132px" height="63px" viewBox="0 0 132 63" version="1.1" xmlns="http://www.w3.org/2000/svg" xmlns:xlink="http://www.w3.org/1999/xlink">
    <!-- Generator: Sketch 61 (89581) - https://sketch.com -->
    <title>logo_2</title>
    <desc>Created with Sketch.</desc>
    <g id="logo_2" stroke="none" stroke-width="1" fill="none" fill-rule="evenodd">
        <g id="编组" transform="translate(0.000000, 0.010582)" fill="#E3007E">
            <path d="M112.903783,61.595972 L-0.000136543737,61.595972 L-0.000136543737,0.330845474 L131.475438,0.330845474 L131.475438,43.024317 C131.475438,53.2391539 123.117937,61.595972 112.903783,61.595972" id="Fill-1"></path>
        </g>
        <path d="M54.57916,49.610982 L52.2121743,52.1459165 L51.76158,51.7581323 L54.1299311,49.2269528 L54.57916,49.610982 Z M44.2339238,51.7813447 L44.2339238,51.243021 C44.7643962,51.2542859 45.1371606,51.0402536 45.3470966,50.7292752 C45.3699677,50.67773 45.3989832,50.6319878 45.3989832,50.6019482 C45.4204889,50.5391381 45.4204889,50.5186565 45.4416532,50.4715489 L45.4416532,50.3537799 L45.4416532,42.5328961 L45.4416532,42.3113539 L45.4416532,42.0546516 L51.6909186,42.0546516 L51.6909186,42.5328961 L49.9871941,42.5328961 L49.9871941,44.019516 L51.6909186,44.019516 L51.6909186,44.2922621 L51.6909186,44.4977604 L51.6909186,46.2339141 L51.6909186,46.5298726 L51.6909186,46.6998696 L46.0564413,46.6998696 L46.0564413,50.4275136 C46.0564413,50.5186565 46.0325462,50.6019482 45.9909003,50.7497568 C45.9909003,50.7709211 45.9909003,50.7709211 45.9629089,50.7709211 C45.6990381,51.4457885 45.0210984,51.7813447 44.2339238,51.7813447 L44.2339238,51.7813447 Z M47.4044694,40.9407961 L48.7562524,42.0078854 L49.1583737,41.5863066 L47.8096629,40.501808 L47.4044694,40.9407961 Z M55.9039756,49.6597964 L57.9616897,51.8919451 L58.41126,51.5113295 L56.3528632,49.2754258 L55.9039756,49.6597964 Z M50.0319122,47.0876538 L50.0319122,48.3554624 L51.6216227,47.6710369 L51.6216227,48.1509881 L50.0319122,48.8248315 L50.0319122,50.7497568 L51.336929,50.3131582 L51.336929,50.7914026 L49.4232685,51.4201865 L49.4232685,51.0870198 L49.4232685,50.9419421 L49.4232685,47.0876538 L50.0319122,47.0876538 Z M49.9871941,46.2339141 L51.1037806,46.2339141 L51.1037806,44.4977604 L49.9871941,44.4977604 L49.9871941,46.2339141 Z M48.0714855,46.2339141 L49.3703578,46.2339141 L49.3703578,44.4977604 L48.0714855,44.4977604 L48.0714855,46.2339141 Z M48.0714855,44.0201987 L49.3703578,44.0201987 L49.3703578,42.5328961 L48.0714855,42.5328961 L48.0714855,44.0201987 Z M47.5720768,47.0876538 L47.5720768,48.3759439 L49.0211472,48.3759439 L49.0211472,48.8439476 L47.5720768,48.8439476 L47.5720768,50.7497568 L48.8798244,50.3131582 L48.8798244,50.7914026 L46.9764048,51.4201865 L46.9764048,51.0870198 L46.9764048,50.9419421 L46.9764048,47.0876538 L47.5720768,47.0876538 Z M46.0564413,46.2339141 L47.4826407,46.2339141 L47.4826407,44.4977604 L46.0564413,44.4977604 L46.0564413,46.2339141 Z M46.0564413,44.0201987 L47.4826407,44.0201987 L47.4826407,42.5328961 L46.0564413,42.5328961 L46.0564413,44.0201987 Z M57.0820067,40.6840939 L57.0820067,42.326715 L58.2685718,42.326715 L58.2685718,42.7851606 L57.0820067,42.7851606 L57.0820067,48.3554624 L58.5778433,48.3554624 L58.5778433,48.8248315 L52.1404889,48.8248315 L52.1404889,48.3554624 L53.3956672,48.3554624 L53.3956672,42.7851606 L52.2364109,42.7851606 L52.2364109,42.326715 L53.3956672,42.326715 L53.3956672,40.6840939 L53.9865602,40.6840939 L53.9865602,42.326715 L56.4689253,42.326715 L56.4689253,40.6840939 L57.0820067,40.6840939 Z M53.9865602,48.3554624 L56.4689253,48.3554624 L56.4689253,46.7350296 L53.9865602,46.7350296 L53.9865602,48.3554624 Z M53.9865602,46.2806803 L56.4689253,46.2806803 L56.4689253,44.7206681 L53.9865602,44.7206681 L53.9865602,46.2806803 Z M53.9865602,44.2424237 L56.4689253,44.2424237 L56.4689253,42.7851606 L53.9865602,42.7851606 L53.9865602,44.2424237 Z" id="Fill-3" fill="#FEFEFE"></path>
        <path d="M37.8705419,47.0876196 L37.8705419,47.4265895 L37.8705419,50.5653886 L37.8705419,50.6780372 C37.8445986,50.9019689 37.7531143,51.0586528 37.6329558,51.2170436 C37.6329558,51.2436696 37.6329558,51.2436696 37.6090607,51.2542518 C37.2963755,51.6870954 36.7112856,51.9397013 36.0773813,51.913758 L36.0773813,51.4037671 C36.5225139,51.419811 36.8829893,51.2436696 37.0912185,50.964779 C37.1366193,50.9019689 37.158125,50.8524718 37.1840683,50.8125328 C37.2100116,50.7708869 37.2352722,50.7302652 37.2352722,50.6964706 C37.2571192,50.6319537 37.2571192,50.5848461 37.2571192,50.4493264 L37.2571192,47.4265895 L35.5318891,47.4265895 L35.5318891,51.2170436 L34.9413374,51.2170436 L34.9413374,47.4265895 L33.0918525,47.4265895 C32.7627821,48.0615178 32.8075002,48.6926913 33.2058665,49.3187443 C33.6342725,50.0260408 33.5666833,50.7302652 33.2058665,51.379872 L32.595516,51.379872 C33.0423554,50.6964706 33.0423554,49.9953185 32.595516,49.3187443 C32.1674514,48.6926913 32.1674514,48.0615178 32.5036903,47.4265895 L30.8870125,47.4265895 L30.8870125,51.851972 L30.2770034,51.851972 L30.2770034,47.4265895 L30.2770034,47.0876196 L30.2770034,46.9527827 L33.3369485,46.9527827 L33.7766193,45.3757025 L29.9192588,45.3757025 L29.9192588,44.9039439 L38.4675794,44.9039439 L38.4675794,45.3757025 L34.3774118,45.3757025 L33.9455922,46.9527827 L37.8705419,46.9527827 L37.8705419,47.0876196 Z M25.3754246,49.7536361 L27.1668784,49.3187443 L27.1668784,45.7344712 L25.3754246,45.7344712 L25.3754246,45.2633953 L27.1668784,45.2633953 L27.1668784,42.1041146 L25.3272929,42.1041146 L25.3272929,41.6347455 L29.7499445,41.6347455 L29.7499445,42.1041146 L27.7902005,42.1041146 L27.7902005,45.2633953 L29.4676404,45.2633953 L29.4676404,45.7344712 L27.7902005,45.7344712 L27.7902005,49.1876623 L29.4676404,48.8077294 L29.4676404,49.2470588 L25.3754246,50.1953551 L25.3754246,49.7536361 Z M31.0109259,43.1879305 L33.5666833,43.1879305 L33.5666833,40.5918927 L34.1787406,40.5918927 L34.1787406,43.1879305 L36.7112856,43.1879305 L36.7112856,41.2701737 L37.3260738,41.2701737 L37.3260738,43.1879305 L37.3260738,43.5385066 L37.3260738,43.6678817 L30.4169607,43.6678817 L30.4169607,43.5385066 L30.4169607,43.1879305 L30.4169607,41.2701737 L31.0109259,41.2701737 L31.0109259,43.1879305 Z" id="Fill-5" fill="#FEFEFE"></path>
        <polygon id="Fill-7" fill="#FEFEFE" points="62.8633027 15.6479122 60.2880878 9.80145078 65.4422725 9.80145078"></polygon>
        <polygon id="Fill-9" fill="#FEFEFE" points="62.7006108 15.6194087 58.4363499 11.4524352 60.0014825 9.87125876"></polygon>
        <polygon id="Fill-11" fill="#FEFEFE" points="63.0284523 15.6194087 67.3128534 11.4524352 65.7531826 9.87125876"></polygon>
        <path d="M115.899996,12.2379714 C117.222764,12.2379714 118.284733,13.2579531 118.284733,14.5223481 C118.284733,15.7611411 117.222764,16.8005803 115.899996,16.8005803 C114.591225,16.8005803 113.50775,15.7611411 113.50775,14.5223481 C113.50775,13.2579531 114.591225,12.2379714 115.899996,12.2379714 L115.899996,12.2379714 Z M115.899996,11.7942042 C117.482197,11.7942042 118.757515,13.0063712 118.757515,14.5223481 C118.757515,16.0011167 117.482197,17.2484438 115.899996,17.2484438 C114.337253,17.2484438 113.029164,16.0011167 113.029164,14.5223481 C113.029164,13.0063712 114.337253,11.7942042 115.899996,11.7942042 L115.899996,11.7942042 Z M116.819618,16.2595258 L115.800319,14.6844938 C115.684599,14.6844938 115.491389,14.657185 115.23298,14.657185 L115.23298,16.2595258 L114.708994,16.2595258 L114.708994,12.5772825 C114.735961,12.5772825 114.878991,12.5772825 115.113846,12.5574837 C115.37362,12.5574837 115.569219,12.5380262 115.684599,12.5380262 C116.607976,12.5380262 117.052084,12.8930399 117.052084,13.6006778 C117.052084,13.8239269 116.984836,14.0167949 116.849317,14.2328753 C116.701508,14.4018482 116.510688,14.5223481 116.300411,14.5667248 L117.435089,16.2595258 L116.819618,16.2595258 Z M115.23298,13.0340213 L115.23298,14.2328753 C115.37362,14.249602 115.491389,14.249602 115.610182,14.249602 C115.919454,14.249602 116.159088,14.2144419 116.300411,14.096673 C116.441734,14.0034819 116.510688,13.8423603 116.510688,13.5750759 C116.510688,13.3688948 116.441734,13.2357647 116.278222,13.1517903 C116.135876,13.0534788 115.871322,13.0063712 115.539521,13.0063712 C115.491389,13.0063712 115.398539,13.0063712 115.23298,13.0340213 L115.23298,13.0340213 Z" id="Fill-13" fill="#FEFEFE"></path>
        <path d="M103.045837,35.8546102 C102.24296,37.9805962 99.9241061,39.1074233 97.3901957,39.0589503 L97.3901957,37.3094837 C100.510561,37.4105261 102.168885,34.8168778 101.481387,32.2252777 L95.850665,18.2237415 L98.0087388,18.2237415 L102.950257,30.6413703 L107.592402,18.2237415 L109.765496,18.2237415 L103.045837,35.8546102 Z" id="Fill-15" fill="#FEFEFE"></path>
        <polygon id="Fill-17" fill="#FEFEFE" points="86.3365706 33.014876 81.0366254 24.9635745 78.1541871 28.0327364 78.1541871 33.014876 76.0015751 33.014876 76.0015751 11.8567412 78.1541871 11.8567412 78.1541871 25.6374179 84.7789479 18.2237757 87.379082 18.2237757 82.3669028 23.565708 88.5782774 33.014876"></polygon>
        <polygon id="Fill-19" fill="#FEFEFE" points="62.9077818 33.1307333 62.9077818 19.9600658 60.6903115 19.9600658 60.6903115 18.3307577 65.0627833 18.3307577 65.0627833 33.1307333"></polygon>
        <polygon id="Fill-21" fill="#FEFEFE" points="46.321541 33.2832527 46.2024066 33.6037891 41.0635831 22.2143347 36.0773472 33.2832527 35.9093984 33.6037891 30.2547809 18.1695678 32.5480329 18.1695678 36.2678257 29.000217 40.8563779 18.1695678 40.9973593 17.8797537 41.137658 18.1695678 45.8719707 28.9524267 49.8245706 18.1695678 51.877847 18.1695678"></polygon>
        <path d="M19.2001317,12.1798037 C16.5050997,15.8463444 16.1029784,19.4347138 19.2001317,23.1999073 C22.0624297,26.7302457 22.0259043,30.3995172 19.2001317,34.0090509 L22.0893971,34.0090509 C24.0552856,30.1530558 24.5007595,26.3404133 21.8542005,23.0650704 C18.5436977,18.9885571 18.7051606,15.5613094 22.0893971,12.1798037 L19.2001317,12.1798037 Z" id="Fill-23" fill="#FEFEFE"></path>
        <path d="M65.6565096,52.0071539 L68.0153027,52.0071539 L68.0153027,51.5326644 L66.5297068,51.5326644 L66.5297068,42.9642036 L68.0153027,42.9642036 L68.0153027,42.4859592 L65.6565096,42.4859592 L65.6565096,52.0071539 Z M71.9948699,46.9761999 C72.6321877,46.9761999 73.007683,47.0018019 73.1589052,47.0018019 C73.2701884,47.0212594 73.3719134,47.0212594 73.4879756,47.0680256 L73.4879756,46.5716891 C73.2701884,46.6208449 73.007683,46.6368888 72.6574483,46.6368888 L71.9948699,46.6368888 L71.9948699,44.1797842 C73.0834648,44.1797842 73.6828918,44.2036794 73.7497982,44.2285986 C73.7719866,44.2285986 73.7931509,44.2285986 73.8139738,44.2425943 L73.8139738,43.765374 C73.6477318,43.7964377 73.3882987,43.817602 72.9882255,43.817602 L69.9873356,43.7964377 C69.9576373,43.7964377 69.9354489,43.765374 69.9112124,43.765374 L69.8415751,43.765374 L69.8415751,44.2425943 C69.9112124,44.2285986 70.0122548,44.2036794 70.1228552,44.2036794 C70.2208254,44.2036794 70.6721024,44.1797842 71.5220872,44.1797842 L71.5220872,46.6368888 L70.1228552,46.592512 C70.1033977,46.5716891 70.0767717,46.5716891 70.0532179,46.5716891 L70.0122548,46.5716891 L70.0122548,47.0680256 C70.0317123,47.0212594 70.1228552,47.0212594 70.2699811,47.0018019 C70.4573874,47.0018019 70.7881646,47.0018019 71.2107674,46.9761999 L71.5220872,46.9761999 L71.5220872,49.8350844 C71.0308711,49.9777726 70.6721024,50.0938348 70.4341749,50.1300189 C70.1989784,50.179516 69.9112124,50.1955599 69.6067199,50.2238927 C69.7477013,50.4044718 69.8712734,50.5840268 69.9873356,50.7912319 C70.2931935,50.6533228 70.6915599,50.4956148 71.1930168,50.3539506 C72.5663054,49.9944992 73.4422335,49.7702262 73.8139738,49.6801073 C73.8139738,49.5490253 73.8419653,49.4606132 73.8658604,49.3889278 C73.8658604,49.2755965 73.8658604,49.1878671 73.9170643,49.1411009 C73.6067687,49.2472636 73.3719134,49.3472819 73.1589052,49.4083852 L71.9948699,49.7534995 L71.9948699,46.9761999 Z M76.9213679,51.4456178 C76.9213679,51.758303 76.9213679,51.9849656 76.8739189,52.1460872 L77.4405754,52.1460872 C77.417363,51.8921158 77.390737,51.6439476 77.390737,51.4456178 L77.390737,47.4267943 C78.0045011,48.3006742 78.3871649,48.8250021 78.4977653,48.9577909 C78.6947297,49.1878671 78.930609,49.4083852 79.2139372,49.7084401 C79.5679269,50.0433136 79.9963328,50.3884279 80.4923279,50.7294459 C80.5851777,50.5655934 80.7497129,50.4044718 80.9709137,50.2710003 C80.3967473,50.0433136 79.8246291,49.6599671 79.2139372,49.0516647 C78.9531387,48.7833563 78.720673,48.5351881 78.4977653,48.2617592 C78.2861225,47.9678488 78.0314685,47.6046425 77.7239037,47.1540482 L79.5931874,47.1540482 C79.8058543,47.1540482 79.9963328,47.1540482 80.2315294,47.182381 C80.2759061,47.182381 80.3520293,47.2045693 80.4237147,47.2301713 L80.4237147,46.7352002 C80.0649461,46.7802597 79.7741079,46.7802597 79.5931874,46.7980104 L77.390737,46.7980104 L77.390737,45.1014544 C78.9046657,45.1014544 79.731438,45.1014544 79.8058543,45.1273977 C79.8246291,45.1273977 79.8478415,45.1557306 79.9007522,45.1779189 L79.9007522,44.6764621 C79.731438,44.7208388 79.4713222,44.7208388 79.0913892,44.7464407 L77.390737,44.7464407 L77.390737,43.1881353 C77.390737,43.1458068 77.390737,43.0502262 77.417363,42.9198269 C77.4405754,42.7853313 77.5064578,42.645374 77.6276404,42.5081475 L76.8739189,42.5081475 C76.8961073,42.645374 76.9213679,42.8720366 76.9213679,43.1881353 L76.9213679,44.7464407 L75.2872807,44.7464407 C75.4023188,44.4057641 75.5214532,44.0896653 75.6624346,43.7964377 C75.7286583,43.6414605 75.8474514,43.5025273 75.9932118,43.389196 C75.7583566,43.3608632 75.5057507,43.2837159 75.2203743,43.1458068 C75.1923828,43.6414605 75.0251167,44.2036794 74.7158452,44.8536276 C74.4318342,45.4431551 74.1222213,45.8497141 73.7931509,46.071939 C74.0061591,46.071939 74.1222213,46.0968583 74.1427028,46.1173398 C74.223605,46.1173398 74.3403499,46.1456727 74.4779177,46.2337434 C74.6247022,46.071939 74.8155221,45.6930302 75.1012399,45.1014544 L76.9213679,45.1014544 L76.9213679,46.7980104 L74.0310783,46.7485133 L73.9372045,46.7485133 C73.9170643,46.7485133 73.887366,46.7352002 73.887366,46.7352002 L73.887366,47.2301713 C73.9170643,47.2045693 74.1222213,47.182381 74.5263907,47.1540482 L76.5673782,47.1540482 C76.2785882,47.6712076 76.0194965,48.1040512 75.7583566,48.4856909 C75.5214532,48.8069101 75.2323219,49.1134508 74.8820872,49.4722194 C74.6714685,49.6801073 74.3618555,49.930665 73.9867016,50.179516 C73.5815081,50.4044718 73.2701884,50.5655934 72.9882255,50.6533228 C73.1589052,50.7294459 73.2701884,50.7912319 73.3466528,50.8321951 C73.3882987,50.8523353 73.4879756,50.9267516 73.6361256,51.0117501 C73.9372045,50.8127376 74.2662749,50.5655934 74.652011,50.2710003 C75.2872807,49.6801073 75.824239,49.0967242 76.2563999,48.4856909 C76.2785882,48.4440451 76.5182225,48.0852764 76.9213679,47.4267943 L76.9213679,51.4456178 Z M85.0139738,46.7802597 C83.8506212,46.8174678 83.2569973,46.841363 83.2023798,46.8625273 L82.6217275,46.8174678 C82.6217275,46.841363 82.64494,46.8625273 82.6664456,46.8864224 L82.8091338,47.3124389 C83.0415995,47.2468979 83.2812338,47.2301713 83.4764913,47.2045693 C83.8301396,47.182381 84.1581859,47.1540482 84.4896458,47.1540482 L86.9218311,47.0018019 C86.9470917,46.9529875 87.0232149,46.8174678 87.1181128,46.6368888 C86.9218311,46.6631734 86.7354489,46.6863859 86.5272198,46.6996989 C86.2418433,46.7352002 85.883416,46.7485133 85.4382835,46.7485133 L85.4382835,46.071939 L86.4306151,46.0968583 C86.4770399,46.0968583 86.5439464,46.1173398 86.6460128,46.1173398 L86.6460128,45.6930302 L86.1479695,45.734676 C85.9035562,45.734676 85.67348,45.734676 85.4382835,45.7541335 L85.4382835,44.9987053 L86.762075,45.039327 C86.7863115,45.039327 86.8559488,45.039327 86.9761073,45.06015 L86.9761073,44.6047766 C86.8559488,44.6047766 86.7863115,44.6324267 86.7354489,44.6491533 L85.9315477,44.6764621 L84.202904,44.6764621 L84.1370216,44.6764621 C83.8765645,44.6764621 83.6369302,44.6491533 83.4269942,44.6047766 C83.4269942,44.7600951 83.402075,44.9031247 83.402075,45.06015 C83.6369302,45.039327 83.8506212,45.039327 84.111761,45.0185041 L84.8187162,44.9987053 L85.0139738,44.9987053 L85.0139738,45.7541335 L83.7362658,45.7097568 C83.6884755,45.6930302 83.6369302,45.6930302 83.5860677,45.6930302 L83.5860677,46.1456727 L84.1813984,46.0968583 L85.0139738,46.071939 L85.0139738,46.7802597 Z M89.4861225,45.8497141 C88.53373,45.8497141 87.8790027,45.8497141 87.4765401,45.8364011 C87.3987101,45.7991929 87.3328278,45.7817836 87.2119866,45.7817836 L87.2119866,46.2337434 L88.1828126,46.1647888 L89.4861225,46.1456727 L89.4861225,46.9529875 L88.2316269,46.9529875 L88.2316269,46.8174678 C88.2316269,46.6996989 88.2801,46.5716891 88.3965035,46.4163706 L87.7851289,46.4163706 C87.8056105,46.7352002 87.8056105,46.9113417 87.829847,46.9529875 C87.829847,46.9761999 87.8056105,47.1151332 87.7851289,47.3124389 C88.0199842,47.2929814 88.2316269,47.2629418 88.3965035,47.2629418 L91.0922182,47.2629418 C91.2632393,47.2629418 91.4731753,47.2929814 91.8036111,47.3124389 C91.7851777,47.0680256 91.7571862,46.9113417 91.7571862,46.7980104 C91.7571862,46.6996989 91.7571862,46.6208449 91.8036111,46.5457458 C91.8036111,46.5300433 91.8288717,46.4819116 91.8688107,46.4412899 L91.2379787,46.4412899 C91.2632393,46.7485133 91.2871344,46.9314819 91.2871344,46.9529875 L89.9326205,46.9529875 L89.9326205,46.1456727 L91.5400817,46.1647888 L92.1087863,46.2112137 C92.1845681,46.2112137 92.2552295,46.2112137 92.3258909,46.2337434 L92.3258909,45.7817836 C91.7278293,45.8364011 91.3543822,45.8497141 91.1888229,45.8497141 L89.9326205,45.8497141 L89.9326205,45.2352673 L91.0754916,45.262576 C91.1171375,45.262576 91.1888229,45.2823749 91.2871344,45.305246 L91.2871344,44.8536276 L91.2379787,44.8536276 C91.1386431,44.8536276 91.0754916,44.8536276 91.0263359,44.8812777 L89.5127486,44.9229235 L88.6771009,44.9229235 C88.7778019,44.8119817 88.8655312,44.6979677 88.9590637,44.6047766 C88.9863724,44.5853191 89.0327973,44.535822 89.089463,44.535822 C89.1273539,44.535822 89.1932362,44.5143164 89.3161256,44.4975898 L88.6108772,44.1797842 C88.6108772,44.2285986 88.578448,44.2920914 88.5637696,44.3549016 C88.415961,44.6047766 88.3292557,44.7600951 88.2801,44.8314392 C87.9950649,45.1014544 87.7076404,45.305246 87.3987101,45.410726 C87.5424224,45.4431551 87.7274392,45.5325913 87.9950649,45.6196379 C88.1131753,45.5325913 88.2316269,45.410726 88.3292557,45.305246 L88.415961,45.2352673 L89.4861225,45.2352673 L89.4861225,45.8497141 Z M83.5860677,43.6680866 L82.3616117,43.5940116 C82.3865309,43.7052947 82.4080366,43.817602 82.4080366,43.9613142 C82.4329558,44.1398452 82.4561682,44.3825517 82.4561682,44.6764621 C82.3865309,44.9679829 82.3616117,45.1557306 82.3616117,45.2185407 L82.9303164,45.2185407 C82.8855983,44.8119817 82.8582895,44.4975898 82.8582895,44.3159866 L82.8582895,44.0009119 L91.9691704,44.0009119 L91.9691704,44.5853191 C91.9691704,44.7464407 91.9452752,44.9475014 91.898509,45.2352673 L92.4624346,45.2352673 C92.4187406,44.8812777 92.3948455,44.5853191 92.3948455,44.4057641 C92.3948455,44.0630393 92.4187406,43.8920183 92.4624346,43.817602 C92.4624346,43.7291899 92.4624346,43.6680866 92.4921329,43.5940116 C92.1087863,43.6414605 91.7571862,43.6680866 91.3987589,43.6680866 L88.0199842,43.6680866 C88.0636781,43.5940116 88.1333155,43.5236916 88.2056836,43.4352795 C88.0636781,43.3226309 87.9233795,43.2120305 87.8056105,43.1458068 C87.3987101,42.8481414 87.0928522,42.6675623 86.8829162,42.5330667 C86.8327364,42.5081475 86.7863115,42.4859592 86.7354489,42.4388516 C86.6671771,42.5330667 86.5931021,42.6214788 86.4770399,42.7088668 C86.9470917,43.009263 87.3772045,43.3226309 87.7544066,43.6680866 L83.5860677,43.6680866 Z M86.5931021,50.5655934 L90.4518281,50.5840268 C90.687366,50.5840268 90.9491887,50.6017775 91.2130594,50.6321585 C91.2130594,50.4956148 91.1888229,50.3539506 91.1662932,50.2238927 C91.1386431,50.0433136 91.1171375,49.9050631 91.1171375,49.7702262 L91.1386431,48.1511588 C91.1386431,48.1340908 91.1662932,47.9330302 91.2130594,47.5445632 C91.1662932,47.5445632 90.8082073,47.5612899 90.1975154,47.6046425 L84.7518098,47.6046425 C84.4630198,47.5612899 84.2360158,47.5445632 84.0390515,47.5445632 L83.9735105,47.5445632 C83.9735105,47.7179738 83.9946748,47.9330302 84.0390515,48.1040512 C84.0390515,48.2156757 84.0390515,48.3006742 84.0622639,48.3757732 L84.0390515,50.0433136 C84.0178872,50.3133289 83.9946748,50.4956148 83.9946748,50.6321585 C84.6077562,50.5840268 85.0334313,50.5655934 85.2218616,50.5655934 L86.2643731,50.5655934 C86.1776678,50.6321585 86.0571679,50.6779006 85.9315477,50.7495861 C85.7216117,50.8523353 85.510993,50.9421128 85.296278,51.0117501 C84.9378507,51.1510247 84.6562292,51.2428504 84.4459518,51.2865443 C83.8963633,51.4200158 83.3307309,51.4910186 82.7173081,51.5111588 C82.8855983,51.6040085 82.9968814,51.758303 83.1225017,51.9593636 C83.4764913,51.8921158 83.8765645,51.798242 84.2745895,51.6866175 C84.6794416,51.6040085 85.0795148,51.4910186 85.4382835,51.3804182 C85.7431173,51.2428504 86.0336141,51.1243987 86.2920232,51.0578336 C86.385897,51.0117501 86.4992283,50.9649838 86.6210936,50.9421128 C86.7122365,50.9267516 86.8327364,50.9267516 87.0232149,50.9267516 C86.8829162,50.7912319 86.7354489,50.6779006 86.5931021,50.5655934 L86.5931021,50.5655934 Z M84.4896458,49.3189491 L90.7122853,49.3189491 L90.7122853,48.8250021 L84.4896458,48.8250021 L84.4896458,49.3189491 Z M84.4896458,48.4645267 L90.7122853,48.4645267 L90.7122853,47.9678488 L84.4896458,47.9678488 L84.4896458,48.4645267 Z M84.4896458,50.2238927 L90.7122853,50.2238927 L90.7122853,49.6599671 L84.4896458,49.6599671 L84.4896458,50.2238927 Z M92.3733398,51.758303 C92.3948455,51.7176812 92.3948455,51.6654532 92.4436599,51.6221006 C92.204367,51.5111588 91.7278293,51.3500372 91.0754916,51.1243987 C90.4791368,50.9421128 89.8861957,50.7710917 89.3420689,50.6321585 C89.2929131,50.7495861 89.2212277,50.8523353 89.1553453,50.9649838 C90.432712,51.3066845 91.4731753,51.6654532 92.227238,51.9849656 L92.227238,51.9593636 C92.2552295,51.9395648 92.2736629,51.9143042 92.2736629,51.8671966 C92.2978994,51.8176995 92.3484206,51.781174 92.3733398,51.758303 L92.3733398,51.758303 Z M94.5034221,51.9593636 L96.91615,51.9593636 L96.91615,42.4692326 L94.5034221,42.4692326 L94.5034221,42.9198269 L95.9675123,42.9198269 L95.9675123,51.4654166 L94.5034221,51.4654166 L94.5034221,51.9593636 Z" id="Fill-25" fill="#FEFEFE"></path>
    </g>
</svg>